<svg version="1.1" xmlns="http://www.w3.org/2000/svg" viewBox="0 0 1694.1191896009204 824.8666925837504" width="1694.1191896009204" height="824.8666925837504">
  <!-- svg-source:excalidraw -->
  
  <defs>
    <style>
      @font-face {
        font-family: "Virgil";
        src: url("https://excalidraw.com/Virgil.woff2");
      }
      @font-face {
        font-family: "Cascadia";
        src: url("https://excalidraw.com/Cascadia.woff2");
      }
    </style>
  </defs>
  <rect x="0" y="0" width="1694.1191896009204" height="824.8666925837504" fill="#ffffff"></rect><g stroke-linecap="round" transform="translate(84.43545088113297 381.7150067823088) rotate(0 96.66666666666697 37.22222222222217)"><path d="M1.98 -1.43 C58.64 -2.79, 121.21 -2.05, 191.95 1.47 M-0.33 0.79 C53.65 1.36, 107.95 0.88, 192.89 0.55 M194.86 -1.56 C192.47 21.71, 193.41 44.77, 193.83 74.89 M192.46 0.45 C192.95 21.58, 194.04 42.12, 193.17 74.29 M194.55 74.53 C151.92 76.17, 111.78 77.25, 0.34 73.54 M192.81 75.12 C129.03 73.91, 64.36 73.96, 0.21 75.16 M1.68 74.61 C0.47 48.48, 1.64 23.27, 1.76 0.84 M-0.42 73.96 C-0.11 54.14, 0.24 32.96, -0.35 0.21" stroke="#000000" stroke-width="1" fill="none"></path></g><g transform="translate(111.87989532557776 409.15945122675316) rotate(0 67 10)"><text x="67" y="14" font-family="Virgil, Segoe UI Emoji" font-size="16px" fill="#000000" text-anchor="middle" style="white-space: pre;" direction="ltr">Create Consumer</text></g><g stroke-linecap="round"><g transform="translate(285.5465619922443 419.49278456008665) rotate(0 112.92688833978264 -2.0434257882689053)"><path d="M-1.01 -1.11 C63.68 -0.32, 130.45 -2.57, 226.86 -1.84 M-0.61 -0.55 C84.09 -3.26, 168.44 -4.51, 225.97 -2.64" stroke="#000000" stroke-width="1" fill="none"></path></g><g transform="translate(285.5465619922443 419.49278456008665) rotate(0 112.92688833978264 -2.0434257882689053)"><path d="M196.45 5.89 C204.55 5.7, 215.05 1.39, 226.2 -0.9 M196.92 6.54 C207.72 2.49, 218.11 -1.19, 225.15 -1.83" stroke="#000000" stroke-width="1" fill="none"></path></g><g transform="translate(285.5465619922443 419.49278456008665) rotate(0 112.92688833978264 -2.0434257882689053)"><path d="M196.76 -14.62 C204.67 -8.96, 215.08 -7.41, 226.2 -0.9 M197.23 -13.97 C207.86 -10.37, 218.13 -6.41, 225.15 -1.83" stroke="#000000" stroke-width="1" fill="none"></path></g></g><g transform="translate(333.87989532557776 386.937229004531) rotate(0 55 10)"><text x="55" y="14" font-family="Virgil, Segoe UI Emoji" font-size="16px" fill="#000000" text-anchor="middle" style="white-space: pre;" direction="ltr">(queue, group)</text></g><g stroke-linecap="round" transform="translate(515.5465619922443 351.7150067823088) rotate(0 66.66666666666652 66.66666666666674)"><path d="M65.29 1.78 C81.78 13.41, 92.82 29.71, 133.54 67.02 M66.81 -0.23 C92.19 23.96, 116 47.87, 132.92 66.5 M135.15 65.98 C108.81 90.46, 83.44 118.57, 65.03 134.97 M132.43 66.62 C119.9 80.91, 106.18 94.12, 67.61 132.8 M66.32 132.72 C48.75 116.84, 31.36 100.62, 0.14 66.84 M67.24 132.79 C46.08 113.9, 26.27 94.29, 0.41 67.67 M-0.07 66.14 C25.28 39.62, 51.58 13.32, 65.65 1.56 M-0.15 66.57 C19.7 47.53, 37.89 28.39, 66.76 0.41" stroke="#000000" stroke-width="1" fill="none"></path></g><g transform="translate(520.5465619922443 398.38167344897556) rotate(0 61.5 20)"><text x="61.5" y="14" font-family="Virgil, Segoe UI Emoji" font-size="16px" fill="#000000" text-anchor="middle" style="white-space: pre;" direction="ltr">queue</text><text x="61.5" y="34" font-family="Virgil, Segoe UI Emoji" font-size="16px" fill="#000000" text-anchor="middle" style="white-space: pre;" direction="ltr">exists?</text></g><g stroke-linecap="round"><g transform="translate(583.3243397700221 488.38167344897556) rotate(0 59.273563907555854 46.051200395673845)"><path d="M0.3 1.06 C0.84 28.71, 1.51 61.71, 2.49 90.57 M-0.03 0.24 C-0.23 32.98, 1.22 66.62, 1.65 90.03 M0.65 90.76 C38.95 93.18, 79.05 90.93, 118.52 90.55 M1.86 90.06 C43.4 91.6, 85.71 90.31, 118.6 89.18" stroke="#000000" stroke-width="1" fill="none"></path></g><g transform="translate(583.3243397700221 488.38167344897556) rotate(0 59.273563907555854 46.051200395673845)"><path d="M91.03 101.36 C100.66 95.54, 110.16 95, 119.98 89.19 M90.7 100.54 C100.67 95.85, 111.99 92, 119.14 88.65" stroke="#000000" stroke-width="1" fill="none"></path></g><g transform="translate(583.3243397700221 488.38167344897556) rotate(0 59.273563907555854 46.051200395673845)"><path d="M90.4 80.85 C100.19 81.8, 109.89 88.03, 119.98 89.19 M90.07 80.03 C100.21 82.91, 111.76 86.61, 119.14 88.65" stroke="#000000" stroke-width="1" fill="none"></path></g></g><g stroke-linecap="round" transform="translate(722.2132286589112 529.4927845600869) rotate(0 87.2222222222224 46.111111111111086)"><path d="M0.38 1.5 C47.74 0.4, 97.69 1.86, 172.69 -1.94 M-0.17 0.82 C40.51 -0.12, 80.92 -0.14, 173.49 0.21 M174.18 0.5 C173.76 32.72, 174.54 62.57, 175.4 92.55 M174.39 0.24 C174.38 29, 175.91 56.31, 173.94 91.3 M172.82 90.61 C129.12 90.93, 84.04 93.38, 0.3 90.52 M174.33 91.57 C115.95 93.94, 58.85 92.81, 0.3 93.2 M1.65 91.65 C-0.56 61.2, 0.37 28.88, -0.58 0.7 M0.6 92.08 C-0.43 73.46, -0.39 52.69, -0.11 0.97" stroke="#000000" stroke-width="1" fill="none"></path></g><g transform="translate(725.7687842144674 558.0483401156428) rotate(0 82 20)"><text x="82" y="14" font-family="Virgil, Segoe UI Emoji" font-size="16px" fill="#000000" text-anchor="middle" style="white-space: pre;" direction="ltr">check if group exists</text><text x="82" y="34" font-family="Virgil, Segoe UI Emoji" font-size="16px" fill="#000000" text-anchor="middle" style="white-space: pre;" direction="ltr">in a queue</text></g><g transform="translate(549.2132286589103 520.2705623378645) rotate(266.34440469750615 13 10)"><text x="13" y="14" font-family="Virgil, Segoe UI Emoji" font-size="16px" fill="#000000" text-anchor="middle" style="white-space: pre;" direction="ltr">yes</text></g><g stroke-linecap="round" transform="translate(1106.6576731033556 512.8261178934199) rotate(0 54 54.5)"><path d="M56.55 1.51 C70.05 19.38, 85.98 34.77, 108.95 54.48 M55.89 -0.09 C67.73 11.72, 80.88 25.27, 107.49 54.08 M109.72 53.22 C89.95 72.95, 69.81 92.84, 55 108.78 M108.97 54.08 C91.1 72.55, 73.35 90.32, 55.05 109.47 M56.12 110.39 C42.59 96.31, 31.88 86.37, 0.93 55.63 M54.44 109.18 C32.5 87.78, 10.28 66.54, -0.72 54.21 M0.71 55.36 C14.35 39.7, 33.91 23, 56.64 0.13 M0.51 54.41 C17.62 37.98, 36.58 19.68, 55.53 -0.5" stroke="#000000" stroke-width="1" fill="none"></path></g><g transform="translate(1111.6576731033556 547.3261178934199) rotate(0 49 20)"><text x="49" y="14" font-family="Virgil, Segoe UI Emoji" font-size="16px" fill="#000000" text-anchor="middle" style="white-space: pre;" direction="ltr">Group </text><text x="49" y="34" font-family="Virgil, Segoe UI Emoji" font-size="16px" fill="#000000" text-anchor="middle" style="white-space: pre;" direction="ltr">exists?</text></g><g stroke-linecap="round" transform="translate(726.1021175477977 193.38167344897556) rotate(0 87.2222222222224 46.111111111111086)"><path d="M1.08 -1.32 C66.34 -0.47, 127.04 1.65, 173.96 -0.18 M-0.74 0.61 C67.9 -2.02, 134.68 -1.19, 174.89 -0.09 M174.29 1.98 C175.14 31.85, 175.25 62.29, 173.63 93.93 M173.5 -0.76 C173.89 29.55, 173.29 58.77, 173.94 92.67 M173.43 91.48 C118.87 91.23, 64.37 92.78, -0.35 90.3 M174.98 93.15 C136.11 93.89, 98.88 92.1, 0.37 92.61 M1.05 90.55 C0.33 68.17, 1.51 44.8, 0.71 1.72 M0.2 91.66 C0.67 60.9, -0.95 31.15, -0.7 0.64" stroke="#000000" stroke-width="1" fill="none"></path></g><g transform="translate(759.7687842144651 226.38167344897624) rotate(0 53 10)"><text x="53" y="14" font-family="Virgil, Segoe UI Emoji" font-size="16px" fill="#000000" text-anchor="middle" style="white-space: pre;" direction="ltr">create queue</text></g><g stroke-linecap="round" transform="translate(1264.9910064366868 334.49278456008665) rotate(0 87.22222222222217 46.111111111111086)"><path d="M-0.06 -0.22 C57.42 -0.03, 115.34 0.84, 174.03 0.65 M-0.47 0.85 C52.12 -1.21, 105.71 0.29, 174.61 -0.03 M172.7 -0.92 C171.71 38.39, 173.04 73.41, 174.75 93.64 M173.61 0.32 C174.46 26.42, 175.08 50.9, 173.74 91.54 M175.35 93.73 C126.43 95.43, 75.46 93.39, -0.85 90.96 M174.91 92.14 C113.96 93.36, 54.82 94.21, 0.54 93.02 M1.76 94.21 C-0.54 58.26, -2.63 23.2, -0.04 -0.69 M0.96 91.54 C-0.42 74.34, -1.65 54.23, 0.07 0.57" stroke="#000000" stroke-width="1" fill="none"></path></g><g transform="translate(1299.5465619922434 369.71500678230996) rotate(0 51 10)"><text x="51" y="14" font-family="Virgil, Segoe UI Emoji" font-size="16px" fill="#000000" text-anchor="middle" style="white-space: pre;" direction="ltr">create group</text></g><g stroke-linecap="round"><g transform="translate(1161.1021175477986 508.3816734489758) rotate(0 47.36987055506984 -64.95520633246917)"><path d="M0.22 -0.42 C-0.63 -32.81, -0.78 -67.11, -1.57 -129.02 M-0.04 -0.69 C-0.42 -28.13, -1.21 -55.59, -1.08 -129.45 M-0.14 -128.4 C34.15 -127.66, 69.31 -130.24, 96.31 -129.27 M-0.5 -129.11 C20.06 -129.36, 39.74 -128.77, 93.73 -128.4" stroke="#000000" stroke-width="1" fill="none"></path></g><g transform="translate(1161.1021175477986 508.3816734489758) rotate(0 47.36987055506984 -64.95520633246917)"><path d="M65.66 -118.81 C72.13 -120.69, 79.37 -124.52, 92.71 -128.53 M65.4 -119.08 C72.06 -120.84, 77.48 -122.69, 93.2 -128.96" stroke="#000000" stroke-width="1" fill="none"></path></g><g transform="translate(1161.1021175477986 508.3816734489758) rotate(0 47.36987055506984 -64.95520633246917)"><path d="M65.85 -139.33 C72.25 -135.95, 79.44 -134.52, 92.71 -128.53 M65.59 -139.6 C72.35 -136.94, 77.73 -134.38, 93.2 -128.96" stroke="#000000" stroke-width="1" fill="none"></path></g></g><g transform="translate(1125.9354508811316 452.4927845600869) rotate(267.7440600363399 8.5 10)"><text x="8.5" y="14" font-family="Virgil, Segoe UI Emoji" font-size="16px" fill="#000000" text-anchor="middle" style="white-space: pre;" direction="ltr">no</text></g><g stroke-linecap="round" transform="translate(1288.3243397700198 684.4927845600866) rotate(0 87.22222222222263 46.111111111111086)"><path d="M0.9 -1 C39.82 0.95, 80.99 0.32, 174.33 -0.1 M0.83 -0.35 C35.86 0.25, 73.5 -0.11, 173.59 -0.68 M176.14 -1.9 C174.37 30.66, 173.06 58.74, 173.01 93.42 M173.93 0.19 C173.51 35.32, 173.57 70.22, 174.62 92.65 M172.8 91.43 C114.11 94.41, 49.84 91.91, -0.53 92.8 M174.66 91.67 C131.06 91.11, 89.32 92.33, -0.66 91.27 M-1.82 93.24 C0.28 65.96, 0.27 42.22, 0.39 0.04 M0.68 92.54 C-0.62 66.75, -1.15 42.28, 0.66 0.82" stroke="#000000" stroke-width="1" fill="none"></path></g><g transform="translate(1308.3798953255782 719.7150067823097) rotate(0 65.5 10)"><text x="65.5" y="14" font-family="Virgil, Segoe UI Emoji" font-size="16px" fill="#000000" text-anchor="middle" style="white-space: pre;" direction="ltr">insert into group</text></g><g stroke-linecap="round"><g transform="translate(1159.9910064366877 626.1594512267534) rotate(0 59.836381514453024 50.66993384126266)"><path d="M1.79 1.98 C2.61 33.03, 4.01 70.53, 5.66 101.22 M0.16 -0.97 C1.96 37.59, 2.8 75.37, 5.4 100.29 M4.71 101.83 C37.99 103.24, 71.79 101.07, 119.51 100.91 M5.43 101.8 C39.11 100.09, 74.02 100.12, 117.94 101.1" stroke="#000000" stroke-width="1" fill="none"></path></g><g transform="translate(1159.9910064366877 626.1594512267534) rotate(0 59.836381514453024 50.66993384126266)"><path d="M91.37 112.89 C99.76 106.23, 108.95 105.82, 118.04 101.22 M89.75 109.94 C100.68 107.21, 110.05 103.51, 117.79 100.28" stroke="#000000" stroke-width="1" fill="none"></path></g><g transform="translate(1159.9910064366877 626.1594512267534) rotate(0 59.836381514453024 50.66993384126266)"><path d="M91.71 92.37 C100.02 92.72, 109.1 99.33, 118.04 101.22 M90.08 89.42 C100.77 94.37, 110.02 98.34, 117.79 100.28" stroke="#000000" stroke-width="1" fill="none"></path></g></g><g stroke-linecap="round"><g transform="translate(1457.768784214467 378.3816734489769) rotate(0 65.38912405226483 181.5580562344856)"><path d="M1.64 1.19 C35.65 0.74, 66.02 3.48, 121.41 8.1 M0.6 -0.1 C41.72 3.6, 83.4 5.78, 120.29 7.14 M120.97 7.23 C121.87 118.84, 126.5 229.36, 129.54 361.44 M119.65 8.34 C122.38 79.01, 124.17 151.47, 130.18 362.4 M129.27 362.55 C98.27 360.76, 69.59 359.71, 7.75 356.07 M129.16 363.22 C85.12 358.09, 38.17 356.8, 6.1 354.9" stroke="#000000" stroke-width="1" fill="none"></path></g><g transform="translate(1457.768784214467 378.3816734489769) rotate(0 65.38912405226483 181.5580562344856)"><path d="M36.43 347.29 C28.42 347.93, 16.78 350.96, 7.51 355.22 M35.38 346 C25.04 348.86, 15.27 351.4, 6.4 354.27" stroke="#000000" stroke-width="1" fill="none"></path></g><g transform="translate(1457.768784214467 378.3816734489769) rotate(0 65.38912405226483 181.5580562344856)"><path d="M35.37 367.78 C27.84 362.63, 16.5 359.87, 7.51 355.22 M34.33 366.49 C24.47 362.27, 15.06 357.71, 6.4 354.27" stroke="#000000" stroke-width="1" fill="none"></path></g></g><g stroke-linecap="round"><g transform="translate(578.8798953255782 346.15945122675475) rotate(0 66.85059457520629 -53.6013281097014)"><path d="M-1.51 1.3 C4.11 -35.29, 3.75 -70.42, 3.78 -105.11 M-0.81 0.68 C1.58 -42.29, 2.93 -85.54, 3.07 -106.79 M3.62 -108.51 C48.26 -107.36, 91.23 -107.83, 135.21 -108.31 M4.29 -106.17 C50.18 -106.57, 97.49 -105.94, 132.76 -106.94" stroke="#000000" stroke-width="1" fill="none"></path></g><g transform="translate(578.8798953255782 346.15945122675475) rotate(0 66.85059457520629 -53.6013281097014)"><path d="M103.21 -94.94 C116.06 -100.12, 123.83 -103.6, 133.2 -105.37 M103.92 -95.57 C115.81 -100.04, 127.03 -104.95, 132.5 -107.06" stroke="#000000" stroke-width="1" fill="none"></path></g><g transform="translate(578.8798953255782 346.15945122675475) rotate(0 66.85059457520629 -53.6013281097014)"><path d="M102.9 -115.46 C115.65 -113.87, 123.53 -110.6, 133.2 -105.37 M103.61 -116.09 C115.55 -112.36, 126.89 -109.07, 132.5 -107.06" stroke="#000000" stroke-width="1" fill="none"></path></g></g><g stroke-linecap="round"><g transform="translate(818.8798953255782 177.27056233786584) rotate(0 256.7177382705586 32.2519063068047)"><path d="M0.21 -1.45 C2.03 -17.71, 1.57 -38.08, 1.72 -84.04 M-0.42 -0.79 C1.81 -30.85, 2.49 -63.37, 2.83 -83.89 M4.05 -85.06 C133 -83.76, 263.14 -83.12, 499.51 -84.72 M3.48 -84.65 C111.46 -85.18, 219.5 -84.71, 500.1 -84.56 M501.53 -84.2 C504.58 7.52, 508.88 100.31, 513.86 149.66 M500.07 -85.16 C502.63 0.93, 507.56 85.98, 512.94 148.2" stroke="#000000" stroke-width="1" fill="none"></path></g><g transform="translate(818.8798953255782 177.27056233786584) rotate(0 256.7177382705586 32.2519063068047)"><path d="M500.78 119.42 C503.52 127.94, 505.06 132.33, 511.33 148.61 M500.15 120.08 C506.31 131.86, 510.35 141.11, 512.44 148.76" stroke="#000000" stroke-width="1" fill="none"></path></g><g transform="translate(818.8798953255782 177.27056233786584) rotate(0 256.7177382705586 32.2519063068047)"><path d="M521.25 117.87 C519.43 126.69, 516.44 131.42, 511.33 148.61 M520.61 118.53 C519.13 130.73, 515.53 140.57, 512.44 148.76" stroke="#000000" stroke-width="1" fill="none"></path></g></g><g stroke-linecap="round"><g transform="translate(909.9910064366891 569.4927845600882) rotate(0 97.72899370888877 -2.0780115673940145)"><path d="M0.35 -0.54 C53.17 -0.73, 109.35 -1.63, 195.11 -3.61 M0.63 -0.77 C71.84 -3.77, 143.09 -4.05, 193.93 -2.53" stroke="#000000" stroke-width="1" fill="none"></path></g><g transform="translate(909.9910064366891 569.4927845600882) rotate(0 97.72899370888877 -2.0780115673940145)"><path d="M165.92 6.71 C172.22 5.89, 181.83 3.17, 195.71 -2.81 M166.21 6.49 C176.72 2.62, 187.24 -0.04, 194.53 -1.73" stroke="#000000" stroke-width="1" fill="none"></path></g><g transform="translate(909.9910064366891 569.4927845600882) rotate(0 97.72899370888877 -2.0780115673940145)"><path d="M166.27 -13.81 C172.34 -8.84, 181.85 -5.76, 195.71 -2.81 M166.55 -14.03 C176.81 -10.35, 187.21 -5.45, 194.53 -1.73" stroke="#000000" stroke-width="1" fill="none"></path></g></g><g transform="translate(559.2687842144715 289.71500678230996) rotate(267.3574547059353 8.5 10)"><text x="8.5" y="14" font-family="Virgil, Segoe UI Emoji" font-size="16px" fill="#000000" text-anchor="middle" style="white-space: pre;" direction="ltr">no</text></g><g stroke-linecap="round" transform="translate(10 54.18114840377007) rotate(0 837.0595948004602 380.34277208999015)"><path d="M0 0.52 C366.47 -4.14, 732.23 -3.34, 1674.34 0.58 M-0.25 -0.2 C616.83 1.77, 1233.07 1.87, 1674.04 -0.18 M1674.71 -0.09 C1672.92 255.2, 1673.22 510.14, 1674.38 761.36 M1673.84 0.34 C1675.63 253.88, 1675.4 507.66, 1674.01 761.01 M1673.52 761.08 C1117.31 757.83, 559.83 758.4, -0.25 760.49 M1673.77 761.09 C1259.91 756.17, 845.4 755.97, 0.21 760.3 M-0.66 760.35 C-2.3 602.72, -2.46 445.77, 0.6 0.58 M-0.06 760.6 C3.19 465.37, 3.18 169.47, 0.01 0.11" stroke="#000000" stroke-width="1" fill="none"></path></g><g transform="translate(785.5761665367099 10) rotate(0 60 17.5)"><text x="60" y="25" font-family="Virgil, Segoe UI Emoji" font-size="28px" fill="#000000" text-anchor="middle" style="white-space: pre;" direction="ltr">consumer</text></g></svg>