<svg version="1.1" xmlns="http://www.w3.org/2000/svg" viewBox="0 0 2811.901244228684 1081.550165174267" width="2811.901244228684" height="1081.550165174267">
  <!-- svg-source:excalidraw -->
  
  <defs>
    <style>
      @font-face {
        font-family: "Virgil";
        src: url("https://excalidraw.com/Virgil.woff2");
      }
      @font-face {
        font-family: "Cascadia";
        src: url("https://excalidraw.com/Cascadia.woff2");
      }
    </style>
  </defs>
  <rect x="0" y="0" width="2811.901244228684" height="1081.550165174267" fill="#ffffff"></rect><g stroke-linecap="round" transform="translate(10 65.16715853369487) rotate(0 1395.950622114342 503.1915033202861)"><path d="M0.76 -0.45 C573.61 -0.59, 1148.23 0.65, 2792.44 -0.38 M-0.19 0.04 C614.76 -5.86, 1230.18 -6.34, 2791.79 0.29 M2792.32 0.11 C2790.42 209.38, 2790.16 419.06, 2791.54 1006.01 M2791.68 -0.38 C2787.69 259.25, 2787.74 518.24, 2791.94 1006.49 M2792.68 1006.69 C2145.88 1009.03, 1498.97 1008.55, -0.25 1006.14 M2792.12 1006.01 C2210.15 1001.11, 1629.13 1001.11, -0.35 1006.12 M-0.4 1006.93 C-3.27 737.16, -2.77 468.51, -0.1 0.01 M0.36 1006.31 C0.24 679.65, 0.34 352.91, -0.15 -0.07" stroke="#000000" stroke-width="1" fill="none"></path></g><g stroke-linecap="round" transform="translate(81.14483688363998 658.2741770380036) rotate(0 97.77777777777783 44.166666666666686)"><path d="M-1.59 1.27 C40.99 1.02, 83.56 1.23, 195.36 1.46 M0.4 -0.62 C51.37 -1.09, 101.91 -1.15, 195.69 -0.02 M196.17 1.28 C195.39 23.05, 197.32 50.34, 195.46 88.73 M196.43 0.7 C196.12 30.76, 194.68 60.39, 194.76 88.24 M197.49 87.39 C133.51 89.98, 71.31 89.99, 1.35 87.35 M195.1 88.84 C140.26 88.48, 87.65 88.23, -0.44 88.41 M1.58 87.3 C-1.7 65.67, -1.05 48.32, 1.13 -1.82 M-0.59 87.76 C-0.44 63.42, 0.04 38.83, -0.3 0.51" stroke="#000000" stroke-width="1" fill="none"></path></g><g transform="translate(110.86705910586215 690.1630659268925) rotate(0 62.5 10)"><text x="62.5" y="14" font-family="Virgil, Segoe UI Emoji" font-size="16px" fill="#000000" text-anchor="middle" style="white-space: pre;" direction="ltr">send a message</text></g><g stroke-linecap="round"><g transform="translate(283.92261466141827 706.1710472369354) rotate(0 136.5041618224834 -2.195831068872792)"><path d="M0.73 0.92 C87.62 0.62, 172.48 -0.36, 270.8 -5.31 M0.55 -0.49 C103.85 -2.49, 208.61 -4.91, 272.46 -4.15" stroke="#000000" stroke-width="1" fill="none"></path></g><g transform="translate(283.92261466141827 706.1710472369354) rotate(0 136.5041618224834 -2.195831068872792)"><path d="M245.22 7.33 C254.55 4.12, 261.3 1.46, 270.64 -5.11 M244.98 5.52 C254.24 2.13, 265.42 -2.69, 272.76 -3.61" stroke="#000000" stroke-width="1" fill="none"></path></g><g transform="translate(283.92261466141827 706.1710472369354) rotate(0 136.5041618224834 -2.195831068872792)"><path d="M245.19 -13.19 C254.63 -9.87, 261.39 -6.01, 270.64 -5.11 M244.96 -15 C254.38 -10.52, 265.57 -7.46, 272.76 -3.61" stroke="#000000" stroke-width="1" fill="none"></path></g></g><g stroke-linecap="round" transform="translate(570.5892813280852 643.829732593559) rotate(0 107.22222222222217 57.22222222222223)"><path d="M1.62 1.07 C85.99 0.69, 168.06 0.89, 213.31 1.33 M0.77 0.73 C57.86 -0.99, 115.57 -1.02, 214.32 -0.24 M213.32 -1.62 C214.63 35.91, 214.71 70.79, 214.45 115.32 M213.68 0.57 C212.71 44.58, 214.13 89.3, 214.62 114.42 M214.79 113.3 C150.54 115.06, 87.23 113.78, 0.46 114.75 M215.18 113.96 C133.11 113.51, 50.06 113.91, -0.12 114.77 M-0.62 114.76 C-0.27 87.16, -0.4 62.74, 1.97 -0.43 M-0.9 114.43 C-0.25 78.24, -1.15 40.9, 0.29 0.3" stroke="#000000" stroke-width="1" fill="none"></path></g><g transform="translate(353.8115035503083 673.4963992602256) rotate(0 49 10)"><text x="49" y="14" font-family="Virgil, Segoe UI Emoji" font-size="16px" fill="#000000" text-anchor="middle" style="white-space: pre;" direction="ltr">message foo</text></g><g transform="translate(618.2559479947522 692.3852881491144) rotate(0 59 10)"><text x="59" y="14" font-family="Virgil, Segoe UI Emoji" font-size="16px" fill="#000000" text-anchor="middle" style="white-space: pre;" direction="ltr">send to groups</text></g><g stroke-linecap="round"><g transform="translate(793.9226146614192 702.7186214824478) rotate(0 107.26531521164179 -1.2743633430167733)"><path d="M-0.77 -0.35 C52.65 -0.48, 106.31 -1.64, 215.09 -1.65 M0.61 0.78 C61.43 -0.91, 121.95 -2.38, 215.3 -3.33" stroke="#000000" stroke-width="1" fill="none"></path></g><g transform="translate(793.9226146614192 702.7186214824478) rotate(0 107.26531521164179 -1.2743633430167733)"><path d="M186.36 6.9 C193.38 4.04, 200.72 1.03, 214.77 -1.4 M187.94 8.19 C195.21 4.06, 202.22 0.43, 215.01 -3.33" stroke="#000000" stroke-width="1" fill="none"></path></g><g transform="translate(793.9226146614192 702.7186214824478) rotate(0 107.26531521164179 -1.2743633430167733)"><path d="M186.1 -13.62 C193.33 -11.41, 200.73 -9.34, 214.77 -1.4 M187.67 -12.33 C195.21 -10.62, 202.3 -8.4, 215.01 -3.33" stroke="#000000" stroke-width="1" fill="none"></path></g></g><g transform="translate(880.8670591058635 667.9408437046699) rotate(0 37.5 10)"><text x="37.5" y="14" font-family="Virgil, Segoe UI Emoji" font-size="16px" fill="#000000" text-anchor="middle" style="white-space: pre;" direction="ltr">group bar</text></g><g stroke-linecap="round" transform="translate(1408.922614661422 649.3852881491143) rotate(0 114.44444444444434 50.55555555555554)"><path d="M0.09 -0.96 C72.12 -1.21, 145.78 0.79, 229.21 -1.45 M-0.57 -0.29 C52.21 0.28, 103.04 0.3, 228.23 -0.04 M229.04 -0.77 C228.48 41.03, 230.03 79.13, 228.39 101.18 M228.02 -0.63 C227.82 26.93, 227.84 55.8, 229.41 100.16 M229.23 101.8 C171.94 102.39, 113.82 102.8, 0.97 100 M229.51 100.64 C171.79 101.08, 113.22 101.77, 0.78 101.35 M1.34 101.72 C1.11 77.86, 1.06 54.4, -0.69 -0.56 M0.43 101.47 C-0.2 70.82, -0.26 40.49, -0.4 0.38" stroke="#000000" stroke-width="1" fill="none"></path></g><g transform="translate(1445.3115035503088 681.2741770380032) rotate(0 72.5 20)"><text x="72.5" y="14" font-family="Virgil, Segoe UI Emoji" font-size="16px" fill="#000000" text-anchor="middle" style="white-space: pre;" direction="ltr">send to consumers</text><text x="72.5" y="34" font-family="Virgil, Segoe UI Emoji" font-size="16px" fill="#000000" text-anchor="middle" style="white-space: pre;" direction="ltr">using Round-robin</text></g><g stroke-linecap="round" transform="translate(1854.4781702169803 646.0519548157805) rotate(0 116.66666666666652 51.11111111111114)"><path d="M1.14 1.45 C69.39 -0.35, 140.67 -1.94, 233.14 0.27 M-0.47 -0.73 C81.19 -1.06, 162.68 -1, 233.14 0.5 M234.2 0.09 C230.95 31.74, 232.61 67.07, 232 102.46 M234.25 0.08 C233.28 27.42, 232.72 52.98, 233.82 101.67 M232.94 101.93 C175.35 103.12, 117.31 100.75, -1.33 101.89 M233.64 102.42 C168.39 100.65, 102.87 101.01, -0.18 103.05 M-1.75 101.25 C0.57 73.83, 1.54 47.45, 1.42 1.3 M0.89 102.5 C1.55 65.72, 1.39 29.54, -0.31 0.11" stroke="#000000" stroke-width="1" fill="none"></path></g><g transform="translate(1870.6448368836463 670.1630659268917) rotate(0 100.5 30)"><text x="100.5" y="14" font-family="Virgil, Segoe UI Emoji" font-size="16px" fill="#000000" text-anchor="middle" style="white-space: pre;" direction="ltr">check return</text><text x="100.5" y="34" font-family="Virgil, Segoe UI Emoji" font-size="16px" fill="#000000" text-anchor="middle" style="white-space: pre;" direction="ltr"></text><text x="100.5" y="54" font-family="Virgil, Segoe UI Emoji" font-size="16px" fill="#000000" text-anchor="middle" style="white-space: pre;" direction="ltr">timeout: 500ms (default)</text></g><g stroke-linecap="round"><g transform="translate(1647.8115035503124 698.274177038003) rotate(0 99.88353963143709 -0.5621759593368552)"><path d="M-0.52 -1.73 C41.78 -0.78, 81.34 -0.44, 200.29 -0.29 M-0.29 -0.48 C44.62 1.5, 89.99 0.57, 199.53 -1.63" stroke="#000000" stroke-width="1" fill="none"></path></g><g transform="translate(1647.8115035503124 698.274177038003) rotate(0 99.88353963143709 -0.5621759593368552)"><path d="M170.97 7.25 C178.56 6.07, 183.03 4.5, 199.85 -0.72 M171.22 8.63 C177.03 7.37, 183.36 4.18, 199.01 -2.22" stroke="#000000" stroke-width="1" fill="none"></path></g><g transform="translate(1647.8115035503124 698.274177038003) rotate(0 99.88353963143709 -0.5621759593368552)"><path d="M170.57 -13.27 C178.08 -10.28, 182.64 -7.68, 199.85 -0.72 M170.83 -11.89 C176.73 -8.48, 183.15 -7.02, 199.01 -2.22" stroke="#000000" stroke-width="1" fill="none"></path></g></g><g stroke-linecap="round" transform="translate(2295.5892813280916 627.1630659268912) rotate(0 77.22222222222263 68.33333333333337)"><path d="M78.16 -0.94 C95.39 16.75, 114.44 34.2, 156.23 69.55 M78.69 -0.55 C109 26.89, 138.75 55.61, 154.82 69.77 M155.61 68.22 C126.52 93.04, 100.48 117.14, 78.3 136.52 M154.95 69.36 C135.06 85.08, 115.16 103.91, 78.57 136.51 M76.03 135.51 C61.03 122.89, 46.03 108.97, -0.94 70.19 M78.02 137.18 C49.04 110.43, 20.35 85.13, 0.24 69.97 M-1.17 69.36 C18.2 50.66, 39.16 34.96, 79.63 1.24 M-0.74 69.19 C20.24 50.54, 40.29 32.42, 77.29 -0.33" stroke="#000000" stroke-width="1" fill="none"></path></g><g stroke-linecap="round"><g transform="translate(2094.023624762436 698.3504828398768) rotate(0 95.85051125403834 -0.4145226165643976)"><path d="M1.47 -1.53 C72.95 -0.87, 147.62 -1.33, 190.7 0.85 M-0.42 0.52 C41.95 -2.32, 83.77 -2.39, 192.12 0.23" stroke="#000000" stroke-width="1" fill="none"></path></g><g transform="translate(2094.023624762436 698.3504828398768) rotate(0 95.85051125403834 -0.4145226165643976)"><path d="M165.2 8.39 C174.25 6.1, 186.44 1.72, 190.5 0.48 M163.31 10.44 C170.03 6.96, 176.22 4.65, 191.91 -0.14" stroke="#000000" stroke-width="1" fill="none"></path></g><g transform="translate(2094.023624762436 698.3504828398768) rotate(0 95.85051125403834 -0.4145226165643976)"><path d="M165.62 -12.12 C174.41 -6.6, 186.44 -3.16, 190.5 0.48 M163.72 -10.08 C170.41 -9.1, 176.51 -6.95, 191.91 -0.14" stroke="#000000" stroke-width="1" fill="none"></path></g></g><g transform="translate(2154.4226146614237 671.2741770380023) rotate(0 44.5 10)"><text x="44.5" y="14" font-family="Virgil, Segoe UI Emoji" font-size="16px" fill="#000000" text-anchor="middle" style="white-space: pre;" direction="ltr">is success?</text></g><g transform="translate(2300.5892813280916 685.4963992602245) rotate(0 72 10)"><text x="72" y="14" font-family="Virgil, Segoe UI Emoji" font-size="16px" fill="#000000" text-anchor="middle" style="white-space: pre;" direction="ltr">is ok message?</text></g><g stroke-linecap="round"><g transform="translate(2374.4781702169803 777.1630659268912) rotate(0 76.93112447361091 50.9274263638589)"><path d="M-1.76 0.87 C-3.32 33.01, -4.43 65.16, -5.08 99.22 M0.33 -0.17 C-1.37 38.5, -3.44 74.4, -3.92 101.16 M-4.3 99.8 C50.43 100.53, 107.39 99.33, 158.95 100.07 M-4.81 102.02 C58.05 101.69, 120.17 100.45, 157.75 98.54" stroke="#000000" stroke-width="1" fill="none"></path></g><g transform="translate(2374.4781702169803 777.1630659268912) rotate(0 76.93112447361091 50.9274263638589)"><path d="M128.22 110.75 C137.85 106.47, 147.12 102.41, 157.11 96.64 M130.31 109.71 C141.13 106.22, 151.05 100.27, 158.28 98.58" stroke="#000000" stroke-width="1" fill="none"></path></g><g transform="translate(2374.4781702169803 777.1630659268912) rotate(0 76.93112447361091 50.9274263638589)"><path d="M127.43 90.24 C137.17 92.56, 146.69 95.1, 157.11 96.64 M129.52 89.2 C140.54 93.34, 150.75 95.02, 158.28 98.58" stroke="#000000" stroke-width="1" fill="none"></path></g></g><g stroke-linecap="round" transform="translate(2536.700392439201 832.7186214824467) rotate(0 104.44444444444434 45.55555555555554)"><path d="M1.61 0.44 C42.03 -1.25, 85.91 -0.88, 209.23 -1.51 M0 0.73 C76.72 -1.49, 152.89 -1.92, 209.32 -0.29 M207.73 1.84 C207.43 21.28, 207.05 43.82, 207.09 89.26 M209.85 0.96 C208.49 26.09, 207.91 50.25, 209.23 91.97 M210.33 91.81 C140.3 91.82, 73.53 93.83, 0.9 91.59 M209.37 91.03 C127.9 90.39, 47.33 91.98, -0.52 90.33 M-1.6 91.82 C1.28 59.05, -1.44 30.15, -1.16 1.31 M-0.75 91.91 C0.94 59.66, -0.69 29.62, -0.31 0.98" stroke="#000000" stroke-width="1" fill="none"></path></g><g transform="translate(2587.033725772535 871.2741770380023) rotate(0 53 10)"><text x="53" y="14" font-family="Virgil, Segoe UI Emoji" font-size="16px" fill="#000000" text-anchor="middle" style="white-space: pre;" direction="ltr">finish process</text></g><g stroke-linecap="round" transform="translate(1022.8115035503129 641.6075103713354) rotate(0 74.5 59.44444444444446)"><path d="M76.77 0.67 C101.54 23.27, 129.37 44.19, 147.94 59.97 M75.07 -0.07 C96.01 17.31, 116.38 34.8, 148.67 59.92 M150.79 59.2 C130.63 72.85, 114.05 85.54, 75.88 120.36 M149.48 59.92 C120.79 81.83, 93.49 104.27, 74.61 119.11 M75.8 117.77 C55.68 105.04, 37.06 90.16, 1.38 59.95 M74.12 118.8 C45.43 97.27, 18.1 74.94, 0.08 59.46 M-1.77 61.1 C22.24 38.43, 48.14 19.75, 73.14 0.81 M-0.23 59.14 C17.47 46.15, 35.69 31.77, 75.1 0.5" stroke="#000000" stroke-width="1" fill="none"></path></g><g transform="translate(1027.8115035503129 691.0519548157798) rotate(0 69.5 10)"><text x="69.5" y="14" font-family="Virgil, Segoe UI Emoji" font-size="16px" fill="#000000" text-anchor="middle" style="white-space: pre;" direction="ltr">has consumers</text></g><g stroke-linecap="round"><g transform="translate(1177.7184000528614 700.896100586926) rotate(0 105.9991010872152 -0.7755262582924729)"><path d="M1.7 -0.68 C56.83 1.73, 109.55 1.47, 211.49 -0.41 M0.23 0.17 C57 -2.09, 114.36 -1.44, 211.77 -2.62" stroke="#000000" stroke-width="1" fill="none"></path></g><g transform="translate(1177.7184000528614 700.896100586926) rotate(0 105.9991010872152 -0.7755262582924729)"><path d="M185.59 7.13 C192.46 6.54, 196.56 4.1, 212.09 -0.73 M183.93 8.09 C190.74 4.19, 198.26 2.7, 212.4 -3.23" stroke="#000000" stroke-width="1" fill="none"></path></g><g transform="translate(1177.7184000528614 700.896100586926) rotate(0 105.9991010872152 -0.7755262582924729)"><path d="M185.41 -13.39 C192.21 -8.57, 196.36 -5.6, 212.09 -0.73 M183.75 -12.43 C190.74 -10.75, 198.31 -6.66, 212.4 -3.23" stroke="#000000" stroke-width="1" fill="none"></path></g></g><g transform="translate(1269.8115035503142 673.4963992602243) rotate(0 13 10)"><text x="13" y="14" font-family="Virgil, Segoe UI Emoji" font-size="16px" fill="#000000" text-anchor="middle" style="white-space: pre;" direction="ltr">yes</text></g><g stroke-linecap="round"><g transform="translate(1090.192455931266 771.6670341808593) rotate(0 768.3353204581927 114.0357245025923)"><path d="M-1.47 -1.02 C2.21 77.12, 0.68 154.2, 1.54 228.53 M0.13 0.3 C2.84 84.6, 3.24 170.43, 1.28 229.09 M1.91 227.99 C473.82 225.57, 946.93 217.8, 1534.31 203.66 M1.37 228.14 C577.98 221.07, 1154.68 211.7, 1534.76 203.06 M1536.15 202.42 C1537.26 187.93, 1538.85 174.76, 1537.79 155.15 M1535.51 202.37 C1536.43 185.8, 1537.85 166.75, 1537.6 155.47" stroke="#000000" stroke-width="1" fill="none"></path></g><g transform="translate(1090.192455931266 771.6670341808593) rotate(0 768.3353204581927 114.0357245025923)"><path d="M1543.85 177.15 C1544.21 169.62, 1539.03 160.81, 1537.45 155.7 M1545.72 178.69 C1543.43 169.57, 1540.21 162.14, 1537.14 156.36" stroke="#000000" stroke-width="1" fill="none"></path></g><g transform="translate(1090.192455931266 771.6670341808593) rotate(0 768.3353204581927 114.0357245025923)"><path d="M1527.28 176.92 C1533.3 169.4, 1533.77 160.67, 1537.45 155.7 M1529.15 178.47 C1533.03 169.27, 1535.96 161.93, 1537.14 156.36" stroke="#000000" stroke-width="1" fill="none"></path></g></g><g transform="translate(1070.3311799175003 814.6114612671297) rotate(270.98365081073536 8.5 10)"><text x="8.5" y="14" font-family="Virgil, Segoe UI Emoji" font-size="16px" fill="#000000" text-anchor="middle" style="white-space: pre;" direction="ltr">no</text></g><g transform="translate(2340.2631380534967 811.8143353321145) rotate(273.00024273569704 13 10)"><text x="13" y="14" font-family="Virgil, Segoe UI Emoji" font-size="16px" fill="#000000" text-anchor="middle" style="white-space: pre;" direction="ltr">yes</text></g><g stroke-linecap="round"><g transform="translate(2370.2872838831354 618.6099748383957) rotate(0 -0.5615028025486026 -82.97425139779477)"><path d="M1.03 1.33 C-0.28 -37.08, -0.09 -70.37, -2.15 -167.28 M0.22 0.96 C0.4 -56.1, -1.44 -109.76, -2.14 -165.85" stroke="#000000" stroke-width="1" fill="none"></path></g><g transform="translate(2370.2872838831354 618.6099748383957) rotate(0 -0.5615028025486026 -82.97425139779477)"><path d="M9.63 -136.5 C5.93 -144.9, 4.04 -148.18, -3.1 -167.02 M8.82 -136.88 C5.79 -148.07, 0.77 -155.86, -3.08 -165.58" stroke="#000000" stroke-width="1" fill="none"></path></g><g transform="translate(2370.2872838831354 618.6099748383957) rotate(0 -0.5615028025486026 -82.97425139779477)"><path d="M-10.89 -136.15 C-10.13 -144.63, -7.56 -147.98, -3.1 -167.02 M-11.69 -136.53 C-7.91 -147.82, -6.11 -155.72, -3.08 -165.58" stroke="#000000" stroke-width="1" fill="none"></path></g></g><g transform="translate(2343.684780624866 522.8145444591421) rotate(274.4303487121548 8.5 10)"><text x="8.5" y="14" font-family="Virgil, Segoe UI Emoji" font-size="16px" fill="#000000" text-anchor="middle" style="white-space: pre;" direction="ltr">no</text></g><g stroke-linecap="round" transform="translate(2305.9124151945816 341.70266502596337) rotate(0 54.5 52)"><path d="M55.64 0.44 C77.94 19.66, 97.72 41.59, 107.09 51.48 M55.34 0.87 C65.91 11.04, 76.57 21.61, 109.53 53.51 M109.33 54.18 C95.87 66.95, 82.56 81.86, 55.41 102.67 M109.26 53.43 C93.77 68.87, 77.77 81.75, 54.68 103.17 M54.16 102.03 C39.42 90.31, 28.7 78.28, -0.37 51.17 M54.4 104.25 C44.39 94.23, 32.33 83.58, 0.14 52.58 M-0.43 54.06 C17.78 36.61, 38.33 18.57, 56.69 1.31 M-0.4 52.8 C21.66 31.37, 44.27 9.87, 54.63 0.46" stroke="#000000" stroke-width="1" fill="none"></path></g><g transform="translate(2310.9124151945816 383.70266502596337) rotate(0 49.5 10)"><text x="49.5" y="14" font-family="Virgil, Segoe UI Emoji" font-size="16px" fill="#000000" text-anchor="middle" style="white-space: pre;" direction="ltr">is timeout?</text></g><g stroke-linecap="round" transform="translate(1925.1552388871896 342.1803518774359) rotate(0 91.12120271927688 42.59511843090456)"><path d="M-0.5 -1.71 C52.56 0.22, 105.28 -0.93, 183.8 -1.47 M-0.03 -0.75 C50.91 1.48, 102.69 0.19, 182.39 -0.57 M180.68 -0.86 C180.54 25.84, 180.18 56.94, 184.01 86.18 M182.18 0.13 C181.59 24.13, 182.28 47.65, 183.24 86.05 M180.61 83.73 C139.61 85.27, 98.53 82.52, 1.85 83.28 M182.66 84.53 C131.68 83.79, 80.23 83.48, 0.87 85.86 M1.87 85.65 C1.43 62.8, -0.49 39.31, -0.1 0.03 M0.17 85.58 C-0.3 57.24, 1.45 27, 0.44 -0.39" stroke="#000000" stroke-width="1" fill="none"></path></g><g transform="translate(1930.1552388871896 374.77547030834046) rotate(0 86 10)"><text x="86" y="14" font-family="Virgil, Segoe UI Emoji" font-size="16px" fill="#000000" text-anchor="middle" style="white-space: pre;" direction="ltr">remove consumer</text></g><g stroke-linecap="round"><g transform="translate(2301.501981479232 395.01986588033014) rotate(0 -94.69734179032457 -2.7523408971208028)"><path d="M-1.12 -0.32 C-38.96 -0.07, -79.69 -3.02, -187.28 -3.01 M0.15 -0.39 C-57.77 -2.81, -116.51 -4.52, -189.54 -5.2" stroke="#000000" stroke-width="1" fill="none"></path></g><g transform="translate(2301.501981479232 395.01986588033014) rotate(0 -94.69734179032457 -2.7523408971208028)"><path d="M-162.33 -15.38 C-166.73 -11.36, -173.95 -11.36, -188.11 -3.9 M-161.06 -15.44 C-169.63 -11.93, -179.02 -9.28, -190.37 -6.08" stroke="#000000" stroke-width="1" fill="none"></path></g><g transform="translate(2301.501981479232 395.01986588033014) rotate(0 -94.69734179032457 -2.7523408971208028)"><path d="M-162.62 5.14 C-166.85 4.87, -174.01 0.59, -188.11 -3.9 M-161.35 5.08 C-169.85 2.28, -179.15 -1.39, -190.37 -6.08" stroke="#000000" stroke-width="1" fill="none"></path></g></g><g stroke-linecap="round"><g transform="translate(1922.9985240299302 381.0012193081337) rotate(0 -413.9219328256786 128.57307686727694)"><path d="M-0.11 -0.41 C-309.03 1.68, -617.57 1.95, -826.2 0.68 M0.25 0.27 C-309.92 2.86, -619.55 3.16, -826.22 1.19 M-824.93 1.99 C-827.37 66.39, -829.77 130.53, -826.51 257.55 M-826.24 1.23 C-826.08 87.77, -825.46 174.35, -826.48 255.98" stroke="#000000" stroke-width="1" fill="none"></path></g><g transform="translate(1922.9985240299302 381.0012193081337) rotate(0 -413.9219328256786 128.57307686727694)"><path d="M-836.83 226.71 C-833.47 238.04, -829.41 248.25, -826.91 254.97 M-835.92 228.39 C-833.22 238.67, -829.3 249.01, -826.98 256.27" stroke="#000000" stroke-width="1" fill="none"></path></g><g transform="translate(1922.9985240299302 381.0012193081337) rotate(0 -413.9219328256786 128.57307686727694)"><path d="M-816.3 226.85 C-820.62 238.21, -824.22 248.37, -826.91 254.97 M-815.4 228.53 C-820.39 238.91, -824.16 249.19, -826.98 256.27" stroke="#000000" stroke-width="1" fill="none"></path></g></g><g transform="translate(2194.6848851883788 366.4527173077204) rotate(0 13 10)"><text x="13" y="14" font-family="Virgil, Segoe UI Emoji" font-size="16px" fill="#000000" text-anchor="middle" style="white-space: pre;" direction="ltr">yes</text></g><g stroke-linecap="round" transform="translate(2286.7295114854387 107.79610701397326) rotate(0 64 59.5)"><path d="M65.93 -1.1 C90 25.13, 116.24 48.62, 129.11 59.68 M65.29 0.12 C79.69 13.49, 93.83 28.14, 128.83 60.02 M128.4 58.19 C104.93 81.92, 85.3 102.61, 63.83 118.25 M127.11 60.78 C113.21 74.23, 99.68 87.53, 64.08 118.05 M66.04 119.19 C46.64 102.75, 31.29 84.45, -1.44 60.9 M65.67 119.06 C46.26 101.08, 25.64 84.9, 0.5 60.21 M1.26 60.26 C25.64 36.42, 48.39 16.96, 63.7 1.75 M-0.29 59.88 C23.04 38.27, 47.49 16.28, 64.45 0.96" stroke="#000000" stroke-width="1" fill="none"></path></g><g transform="translate(2291.7295114854387 147.29610701397326) rotate(0 59 20)"><text x="59" y="14" font-family="Virgil, Segoe UI Emoji" font-size="16px" fill="#000000" text-anchor="middle" style="white-space: pre;" direction="ltr">has error </text><text x="59" y="34" font-family="Virgil, Segoe UI Emoji" font-size="16px" fill="#000000" text-anchor="middle" style="white-space: pre;" direction="ltr">message?</text></g><g stroke-linecap="round"><g transform="translate(2271.307973477584 165.32973358203503) rotate(0 -644.9792990174237 246.52243975148227)"><path d="M-0.29 0.51 C-506.11 -5.61, -1011.93 -7.49, -1290.08 -5.88 M0.36 -0.02 C-425.5 -1.22, -851.61 -3.62, -1290.1 -5.05 M-1290.32 -4.92 C-1287.2 128.34, -1283.48 262.49, -1278.48 429.39 M-1289.22 -5.13 C-1287.18 157.54, -1282.35 320.87, -1277.85 428.69 M-1279.46 430.34 C-1252.74 458.72, -1226.04 484.54, -1211.26 499.02 M-1278.75 429.46 C-1257.19 450.63, -1237.18 473.15, -1210.04 499.47" stroke="#000000" stroke-width="1" fill="none"></path></g><g transform="translate(2271.307973477584 165.32973358203503) rotate(0 -644.9792990174237 246.52243975148227)"><path d="M-1237.96 488.07 C-1226.54 492.45, -1215.02 498.01, -1210.96 498.24 M-1236.34 486.75 C-1227.52 491.93, -1219.42 494.57, -1211 500.33" stroke="#000000" stroke-width="1" fill="none"></path></g><g transform="translate(2271.307973477584 165.32973358203503) rotate(0 -644.9792990174237 246.52243975148227)"><path d="M-1223.45 473.56 C-1217.82 483.53, -1212 494.78, -1210.96 498.24 M-1221.83 472.23 C-1217.75 482.21, -1214.44 489.64, -1211 500.33" stroke="#000000" stroke-width="1" fill="none"></path></g></g><g transform="translate(1754.715054307142 132.44915529490333) rotate(0 13 10)"><text x="13" y="14" font-family="Virgil, Segoe UI Emoji" font-size="16px" fill="#000000" text-anchor="middle" style="white-space: pre;" direction="ltr">yes</text></g><g stroke-linecap="round"><g transform="translate(2420.121298628592 393.9415084517001) rotate(0 54.168433383567844 -115.96817398900072)"><path d="M1.23 1.02 C41.93 -1.95, 83.02 -5.36, 109.75 -5.7 M-0.4 -0.99 C38.85 -1.06, 75.53 -3.68, 111.54 -4.6 M111.87 -4.31 C105.7 -77.17, 100.93 -150.95, 96.76 -232.3 M110.74 -3.88 C106.64 -90.84, 100.17 -175.99, 96.88 -232.62 M98.81 -232.03 C74.06 -228.91, 55.49 -230.21, -3.54 -221.43 M96.87 -232.96 C72.95 -229.15, 48.41 -227.93, -3.06 -222.04" stroke="#000000" stroke-width="1" fill="none"></path></g><g transform="translate(2420.121298628592 393.9415084517001) rotate(0 54.168433383567844 -115.96817398900072)"><path d="M25.11 -234.21 C15.33 -229.86, 5.8 -226.86, -4.38 -223.43 M23.49 -236.22 C15.48 -230.46, 4.9 -227.09, -2.59 -222.33" stroke="#000000" stroke-width="1" fill="none"></path></g><g transform="translate(2420.121298628592 393.9415084517001) rotate(0 54.168433383567844 -115.96817398900072)"><path d="M27.29 -213.8 C16.55 -216.93, 6.22 -221.41, -4.38 -223.43 M25.66 -215.82 C16.91 -217.05, 5.58 -220.66, -2.59 -222.33" stroke="#000000" stroke-width="1" fill="none"></path></g></g><g stroke-linecap="round"><g transform="translate(2351.106423196239 232.1878941571258) rotate(0 -179.62052559237054 50.969826657378974)"><path d="M0.93 0.51 C0.11 15.68, -2.14 27.65, -8.11 50.48 M0.59 -0.03 C-2.69 12.88, -3.43 27.85, -5.58 48.15 M-5.44 49.22 C-94.15 48.5, -183.3 48.89, -360.17 48.7 M-6.92 48.69 C-123.75 49.55, -241.01 49.41, -358.95 49.91 M-359.04 49.51 C-356.18 67.65, -355.89 87.55, -353.73 101.97 M-358.2 49.86 C-358.86 62.01, -357.65 73.15, -353.27 100.95" stroke="#000000" stroke-width="1" fill="none"></path></g><g transform="translate(2351.106423196239 232.1878941571258) rotate(0 -179.62052559237054 50.969826657378974)"><path d="M-364.74 78.58 C-360.03 86.22, -356.69 90.59, -354.91 102.9 M-365.08 78.04 C-362.82 83.58, -358.27 91.36, -352.38 100.57" stroke="#000000" stroke-width="1" fill="none"></path></g><g transform="translate(2351.106423196239 232.1878941571258) rotate(0 -179.62052559237054 50.969826657378974)"><path d="M-347.13 75.97 C-347.64 84.31, -349.52 89.45, -354.91 102.9 M-347.47 75.43 C-350.17 81.87, -350.56 90.38, -352.38 100.57" stroke="#000000" stroke-width="1" fill="none"></path></g></g><g transform="translate(2207.8117446174274 252.1468298728883) rotate(0 8.5 9.999999999999972)"><text x="8.5" y="14" font-family="Virgil, Segoe UI Emoji" font-size="16px" fill="#000000" text-anchor="middle" style="white-space: pre;" direction="ltr">no</text></g><g transform="translate(1314.8050183378473 10) rotate(0 93 17.5)"><text x="93" y="25" font-family="Virgil, Segoe UI Emoji" font-size="28px" fill="#000000" text-anchor="middle" style="white-space: pre;" direction="ltr">send message</text></g></svg>