<svg version="1.1" xmlns="http://www.w3.org/2000/svg" viewBox="0 0 923.7599022384243 552.2589137336862" width="923.7599022384243" height="552.2589137336862">
  <!-- svg-source:excalidraw -->
  
  <defs>
    <style>
      @font-face {
        font-family: "Virgil";
        src: url("https://excalidraw.com/Virgil.woff2");
      }
      @font-face {
        font-family: "Cascadia";
        src: url("https://excalidraw.com/Cascadia.woff2");
      }
    </style>
  </defs>
  <rect x="0" y="0" width="923.7599022384243" height="552.2589137336862" fill="#ffffff"></rect><g stroke-linecap="round" transform="translate(59.966142826562645 274.1612379655046) rotate(0 82.5 44.16666666666674)"><path d="M-0.75 -0.7 C41.84 -0.36, 87.71 -1.6, 163.32 0.75 M-0.71 0.96 C52.69 -0.67, 103.38 0.6, 165.04 0.09 M164.8 -0.94 C165.19 33.79, 165.58 64.82, 163.09 88.69 M165.53 0.43 C165 30.45, 166.24 59.61, 164.69 88.75 M164.91 86.39 C116.35 86.04, 66.74 87.22, 1.86 88.52 M164.99 87.42 C126.38 89.37, 86.51 89.3, 0.44 87.6 M0.9 90.18 C2.21 57.04, -0.42 22.55, 1.22 1.76 M-0.47 87.41 C0.1 69.07, -0.68 48.51, -0.64 0.46" stroke="#000000" stroke-width="1" fill="none"></path></g><g transform="translate(75.29947615989568 307.1612379655046) rotate(0 63 10)"><text x="63" y="14" font-family="Virgil, Segoe UI Emoji" font-size="16px" fill="#000000" text-anchor="middle" style="white-space: pre;" direction="ltr">create publisher</text></g><g stroke-linecap="round"><g transform="translate(233.29947615989568 312.4945712988382) rotate(0 122.6048766841709 -2.6770431727339883)"><path d="M0.97 -0.4 C61.81 -3.41, 124.75 -4.14, 244.29 -5.81 M0.33 0.32 C69.67 0.96, 140.58 -0.6, 244.88 -4.93" stroke="#000000" stroke-width="1" fill="none"></path></g><g transform="translate(233.29947615989568 312.4945712988382) rotate(0 122.6048766841709 -2.6770431727339883)"><path d="M218.26 5.88 C223.97 2.07, 232.18 -0.14, 244.02 -5.92 M217.49 6.75 C224.44 4.29, 233.32 0.9, 244.73 -4.85" stroke="#000000" stroke-width="1" fill="none"></path></g><g transform="translate(233.29947615989568 312.4945712988382) rotate(0 122.6048766841709 -2.6770431727339883)"><path d="M217.5 -14.63 C223.22 -13.25, 231.61 -10.27, 244.02 -5.92 M216.73 -13.75 C223.96 -10.34, 233.05 -7.85, 244.73 -4.85" stroke="#000000" stroke-width="1" fill="none"></path></g></g><g transform="translate(332.46614282656174 275.4945712988382) rotate(0 22.5 10)"><text x="22.5" y="14" font-family="Virgil, Segoe UI Emoji" font-size="16px" fill="#000000" text-anchor="middle" style="white-space: pre;" direction="ltr">queue</text></g><g stroke-linecap="round" transform="translate(482.6328094932296 240.88346018772586) rotate(0 66.66666666666652 66.66666666666674)"><path d="M68.03 1.5 C83.31 15.89, 101.42 32.06, 132.29 65.33 M67.12 0.31 C92.78 24.43, 117.62 50.65, 132.66 66.17 M132.97 68.2 C116.51 84.6, 100.44 100.63, 65.52 132.17 M132.93 67.67 C111.97 87.36, 90.26 108.4, 67.55 132.93 M68.47 132.75 C44.58 111.25, 24.51 91.25, -0.76 68.63 M66.89 132.6 C44.38 111.29, 21.51 88.75, 0.71 66.34 M-1.71 66.65 C26.31 40.86, 50.14 15.62, 66.88 0.98 M-0.69 66.71 C15.8 52.3, 31.24 36.07, 67.26 0.99" stroke="#000000" stroke-width="1" fill="none"></path></g><g transform="translate(487.6328094932296 287.55012685439283) rotate(0 61.5 20)"><text x="61.5" y="14" font-family="Virgil, Segoe UI Emoji" font-size="16px" fill="#000000" text-anchor="middle" style="white-space: pre;" direction="ltr">queue</text><text x="61.5" y="34" font-family="Virgil, Segoe UI Emoji" font-size="16px" fill="#000000" text-anchor="middle" style="white-space: pre;" direction="ltr">exists?</text></g><g stroke-linecap="round"><g transform="translate(550.410587271007 377.55012685439283) rotate(0 58.591388621264514 45.38353467153172)"><path d="M-0.01 -0.94 C2.38 23.37, 0.03 47.93, 2.59 90.58 M0.97 -0.8 C1.41 25.17, 0.05 48.79, 0.65 91.22 M0.7 91.7 C29.17 90.01, 54.99 88.34, 117.19 88.48 M1.45 90.04 C28.88 88.86, 57.39 89.02, 117.04 90.33" stroke="#000000" stroke-width="1" fill="none"></path></g><g transform="translate(550.410587271007 377.55012685439283) rotate(0 58.591388621264514 45.38353467153172)"><path d="M88.65 99.13 C97.99 95.76, 103.11 92.85, 118.51 90.35 M89.63 99.27 C97.42 97.68, 103.53 93.82, 116.58 91" stroke="#000000" stroke-width="1" fill="none"></path></g><g transform="translate(550.410587271007 377.55012685439283) rotate(0 58.591388621264514 45.38353467153172)"><path d="M89.04 78.61 C98.37 80.86, 103.39 83.57, 118.51 90.35 M90.01 78.75 C97.72 82.78, 103.72 84.54, 116.58 91" stroke="#000000" stroke-width="1" fill="none"></path></g></g><g transform="translate(516.2994761598957 409.4390157432815) rotate(266.34440469750615 13 10)"><text x="13" y="14" font-family="Virgil, Segoe UI Emoji" font-size="16px" fill="#000000" text-anchor="middle" style="white-space: pre;" direction="ltr">yes</text></g><g stroke-linecap="round"><g transform="translate(545.9661428265636 235.32790463217202) rotate(0 67.02899411246426 -54.32683361522112)"><path d="M1.61 -1.43 C0.21 -41.67, 3.98 -80, 2.81 -106.43 M1 0.37 C-0.6 -36.09, 0.71 -69.88, 2.73 -106.85 M3.71 -106.34 C48.67 -108.98, 97.38 -109.55, 132.15 -108.59 M3.24 -107.41 C51.63 -106.81, 99.08 -106.29, 133.77 -107.04" stroke="#000000" stroke-width="1" fill="none"></path></g><g transform="translate(545.9661428265636 235.32790463217202) rotate(0 67.02899411246426 -54.32683361522112)"><path d="M107.3 -97.91 C115.18 -101.99, 128.24 -104.25, 133.25 -106.81 M106.69 -96.11 C114.21 -100.58, 123.71 -102.58, 133.17 -107.23" stroke="#000000" stroke-width="1" fill="none"></path></g><g transform="translate(545.9661428265636 235.32790463217202) rotate(0 67.02899411246426 -54.32683361522112)"><path d="M107.08 -118.43 C115.05 -114.81, 128.19 -109.38, 133.25 -106.81 M106.47 -116.63 C114.26 -114.31, 123.83 -109.53, 133.17 -107.23" stroke="#000000" stroke-width="1" fill="none"></path></g></g><g transform="translate(526.3550317154559 178.88346018772722) rotate(267.3574547059353 8.5 10)"><text x="8.5" y="14" font-family="Virgil, Segoe UI Emoji" font-size="16px" fill="#000000" text-anchor="middle" style="white-space: pre;" direction="ltr">no</text></g><g stroke-linecap="round" transform="translate(692.7439206043405 83.71679352106025) rotate(0 87.2222222222224 46.111111111111086)"><path d="M0.54 0.32 C67.56 -0.08, 131.02 -1.37, 175.28 -0.01 M-0.64 -0.77 C43.88 0.21, 88.62 1.56, 175.34 0.01 M172.67 -1.75 C173.73 24.8, 175.56 48.17, 173.46 93.04 M174.52 0.8 C174.39 20.66, 173.24 39.75, 173.96 91.88 M173.56 91.57 C116.3 90.49, 60.82 91.94, 0.59 90.55 M174.49 93.07 C106.04 92.7, 36.21 93.93, 0.4 92.21 M-0.78 91.09 C-1.21 69.49, -0.66 45.08, 0.55 -1.44 M-0.53 91.32 C-0.78 71.21, 0.54 51.95, -0.13 -0.29" stroke="#000000" stroke-width="1" fill="none"></path></g><g transform="translate(726.4105872710074 116.71679352106071) rotate(0 53 10)"><text x="53" y="14" font-family="Virgil, Segoe UI Emoji" font-size="16px" fill="#000000" text-anchor="middle" style="white-space: pre;" direction="ltr">create queue</text></g><g stroke-linecap="round" transform="translate(685.7439206043396 416.71679352106014) rotate(0 87.2222222222224 46.111111111111086)"><path d="M-1.92 0.32 C65.39 -2.19, 133.15 0.02, 172.84 -0.88 M-0.58 0.56 C46.93 -0.55, 94.25 -0.54, 175.13 0.05 M175.36 1.02 C176.11 35.42, 174.33 71.57, 172.9 91.44 M174.27 -0.41 C174.3 21.73, 173.21 45.36, 173.93 91.69 M176.35 91.97 C137.67 90, 99.47 91.95, -1.97 90.37 M174.06 91.98 C119.62 91.4, 66.51 92.93, 0.21 91.57 M-1.59 92.96 C0.18 58.35, -0.2 26.01, 0.25 0.62 M-0.26 92.97 C-1.08 57.26, -0.29 22.35, -0.72 0.77" stroke="#000000" stroke-width="1" fill="none"></path></g><g transform="translate(721.4105872710074 449.7167935210606) rotate(0 51 10)"><text x="51" y="14" font-family="Virgil, Segoe UI Emoji" font-size="16px" fill="#000000" text-anchor="middle" style="white-space: pre;" direction="ltr">link to queue</text></g><g stroke-linecap="round"><g transform="translate(772.9661428265626 184.8279046321711) rotate(0 -1.4160786707454918 113.16911116552262)"><path d="M0.37 -0.59 C0.83 46.7, -0.1 93.48, -3.04 227.07 M0.67 -0.73 C-2.65 81.87, -3.9 163.15, -3.39 226.46" stroke="#000000" stroke-width="1" fill="none"></path></g><g transform="translate(772.9661428265626 184.8279046321711) rotate(0 -1.4160786707454918 113.16911116552262)"><path d="M-13.2 197.57 C-10.33 203.75, -8.56 209.23, -3.44 226.53 M-12.86 197.41 C-10.29 208.43, -6.79 217.93, -3.84 225.82" stroke="#000000" stroke-width="1" fill="none"></path></g><g transform="translate(772.9661428265626 184.8279046321711) rotate(0 -1.4160786707454918 113.16911116552262)"><path d="M7.32 197.58 C5.93 203.59, 3.44 209.07, -3.44 226.53 M7.66 197.42 C2.83 208.48, -1.06 217.97, -3.84 225.82" stroke="#000000" stroke-width="1" fill="none"></path></g></g><g stroke-linecap="round" transform="translate(10 47.712186113947496) rotate(0 451.87995111921214 247.27336380986935)"><path d="M-0.18 0.37 C305.07 0.63, 609.59 0.79, 904.18 0.37 M-0.29 0.36 C237.34 -0.45, 474.29 -0.05, 904.08 -0.16 M903.47 -0.72 C903.09 126.47, 903.59 252.85, 902.97 494.23 M903.92 0.4 C903.26 183.95, 903.12 367.3, 903.7 494.79 M903.07 494.47 C605.13 496.44, 306.11 496, -0.63 493.89 M903.58 494.73 C572.98 497.21, 242.67 496.99, 0.19 494.21 M-0.43 495.13 C-0.1 351.63, 0.87 207.52, 0.64 -0.46 M0.08 494.69 C-0.17 305.09, -0.58 116.34, -0.32 0.11" stroke="#000000" stroke-width="1" fill="none"></path></g><g transform="translate(392.7435575281593 10) rotate(0 57.5 17.5)"><text x="57.5" y="25" font-family="Virgil, Segoe UI Emoji" font-size="28px" fill="#000000" text-anchor="middle" style="white-space: pre;" direction="ltr">publisher</text></g></svg>